<svg width="200" height="200" viewBox="0 0 200 200" fill="none" xmlns="http://www.w3.org/2000/svg">
<g clip-path="url(#clip0_204_88)">
<mask id="mask0_204_88" style="mask-type:luminance" maskUnits="userSpaceOnUse" x="0" y="0" width="200" height="200">
<path d="M200 0H0V200H200V0Z" fill="white"/>
</mask>
<g mask="url(#mask0_204_88)">
<path d="M103.94 43.2677C113.866 44.5538 123.417 48.4226 131.446 54.3937C133.06 55.664 134.722 56.8425 136.176 58.3097C142.415 64.0787 147.391 71.1758 150.646 79.0315C153.1 84.8871 154.509 91.1155 155.013 97.4409C156.751 97.6535 158.438 98.0026 160.031 98.7533C164.11 100.572 167.139 104.249 168.373 108.52C169.063 111.029 169.307 113.703 168.824 116.276C168.047 121.199 165.223 125.759 161.115 128.591C158.244 130.598 154.688 131.748 151.178 131.656C149.832 131.643 148.543 131.236 147.207 131.186C146.722 131.756 146.36 132.457 145.958 133.089C141.06 140.864 134.26 147.396 126.367 152.092C118.992 156.483 110.646 159.22 102.1 160.05C99.1916 160.234 96.3596 160.588 93.4436 160.244C79.8767 159.64 66.6536 154.092 56.6588 144.908C49.0394 137.94 43.315 128.942 40.2441 119.084C38.3832 113.087 37.4567 106.806 37.6011 100.525C37.7375 89.937 40.8898 79.3753 46.5092 70.4042C51.5223 62.3176 58.5591 55.5538 66.7717 50.7638C74.5486 46.2283 83.399 43.4987 92.3858 42.9239C96.2336 42.538 100.113 42.8268 103.94 43.2677Z" fill="black"/>
<path d="M95.2756 44.3727C107.997 44.0079 120.819 48.231 130.921 55.9527C132.64 57.0184 133.997 58.4436 135.478 59.7953C141.864 65.7349 146.816 73.168 149.895 81.3228C151.845 86.4698 153.008 91.874 153.454 97.3569C151.121 97.5512 148.903 97.9711 146.793 99.0315C146.218 99.3018 146.297 100.331 146.971 100.404C147.588 100.465 148.278 100.008 148.871 99.8268C152.709 98.4173 157.092 98.685 160.625 100.793C163.693 102.572 165.898 105.559 166.895 108.945C167.577 111.11 167.598 113.514 167.357 115.756C166.701 120.31 164.116 124.609 160.341 127.255C156.218 130.228 150.585 131.097 145.924 128.882C145.092 128.507 144.365 127.942 143.541 127.556C142.766 127.27 142.26 128.289 142.832 128.803C143.664 129.528 144.759 129.989 145.719 130.525C140.433 139.488 132.74 146.982 123.564 151.908C115.638 156.189 106.651 158.609 97.6378 158.772C90.3859 158.961 83.1155 157.711 76.3229 155.171C68.3649 152.22 61.1418 147.446 55.2284 141.365C49.2782 135.231 44.7507 127.748 42.0525 119.64C38.126 107.924 38.1391 94.9659 42.1234 83.2651C45.0237 74.5879 50.0709 66.6745 56.6562 60.3281C64.4436 52.7874 74.4121 47.5879 85.0368 45.4541C88.3964 44.7926 91.8452 44.3412 95.2756 44.3727Z" fill="#ECAD80"/>
<path d="M158.801 106.142C159.491 106.115 159.703 107.139 159.157 107.449C158.189 107.929 157.105 108.176 156.102 108.591C154.575 109.126 153.142 109.84 151.724 110.617C152.85 111.231 154.05 111.861 155.06 112.654C155.738 113.202 156.333 113.795 156.459 114.701C156.391 115.643 155.743 116.42 155.029 116.982C153.491 118.205 151.375 118.866 149.572 119.675C149.113 119.837 148.409 120.197 148.105 119.606C147.837 119.15 148.089 118.79 148.517 118.591C150.262 117.724 152.417 117.115 153.974 115.924C154.333 115.625 154.864 115.205 154.921 114.711C153.853 113.234 151.661 112.457 150.136 111.538C149.522 111.087 149.535 110.425 150.094 109.929C152.003 108.449 154.551 107.499 156.806 106.68C157.441 106.462 158.126 106.168 158.801 106.142Z" fill="black"/>
<path d="M104.252 97.168C107.263 96.7428 110.467 97.2047 113.176 98.6116C115.174 99.6431 116.929 101.31 117.929 103.336C118.809 105.087 118.932 107.178 118.483 109.063C117.932 111.171 116.588 113.042 114.874 114.365C110.948 117.449 105.284 118.131 100.646 116.399C98.436 115.567 96.3074 114.066 95.0318 112.055C94.2943 110.814 93.6617 109.336 93.625 107.874C93.4386 105.37 94.5725 102.808 96.3205 101.045C98.4334 98.8452 101.273 97.6404 104.252 97.168Z" fill="black"/>
<path d="M104.507 98.7165C108.173 98.1864 112.307 99.147 114.974 101.827C116.706 103.538 117.69 106.276 116.974 108.664C116.433 110.814 114.958 112.467 113.16 113.69C109.895 115.84 105.554 116.32 101.845 115.168C99.58 114.457 97.3701 113.018 96.1522 110.94C95.3596 109.627 95.0656 108.079 95.21 106.559C95.4094 104.766 96.3989 103.115 97.6719 101.874C99.5223 100.11 101.987 99.0446 104.507 98.7165Z" fill="white"/>
<path d="M54.7194 101.236C59.3441 100.53 64.6695 102.134 67.2417 106.257C68.6826 108.491 68.89 111.507 67.7483 113.908C66.9845 115.567 65.6721 116.963 64.1525 117.958C62.2259 119.205 60.0186 119.822 57.743 120.003C53.9031 120.152 49.9189 118.877 47.4018 115.858C46.0317 114.213 45.2548 112.131 45.4228 109.976C45.5698 107.806 46.6328 105.845 48.1813 104.349C49.9976 102.654 52.2889 101.664 54.7194 101.236Z" fill="black"/>
<path d="M56.5748 102.654C59.105 102.562 61.7087 103.249 63.7585 104.759C65.1076 105.761 66.2362 107.168 66.6955 108.803C67.1181 110.43 66.9685 112.194 66.1312 113.669C64.8924 115.932 62.5459 117.402 60.1023 118.055C56.5065 119.029 52.1863 118.241 49.3937 115.696C47.7454 114.21 46.7664 112.089 46.9711 109.853C47.1627 108.425 47.7953 107.05 48.769 105.989C50.6955 103.835 53.7191 102.672 56.5748 102.654Z" fill="white"/>
<path d="M102.483 103.572C103.452 103.362 104.454 103.388 105.36 103.824C107.045 104.619 108.11 106.562 107.693 108.412C107.352 110.315 105.622 111.798 103.677 111.785C101.467 111.908 99.4884 110.074 99.3887 107.877C99.2417 105.924 100.583 104.047 102.483 103.572Z" fill="black"/>
<path d="M103.05 105.042C104.099 104.866 105.105 105.197 105.729 106.081C106.527 107.147 106.323 108.669 105.367 109.564C104.212 110.601 102.249 110.441 101.388 109.1C100.338 107.57 101.225 105.375 103.05 105.042Z" fill="white"/>
<path d="M120.132 105.299C120.575 105.383 121.087 105.236 121.347 105.682C121.769 106.331 121.969 107.147 122.095 107.903C122.473 110.661 121.512 113.622 119.515 115.577C118.656 116.37 117.462 117.144 116.265 117.181C115.549 117.192 115.145 116.493 115.654 115.921C116.512 115.499 117.37 115.367 118.132 114.724C119.782 113.344 120.662 111.045 120.643 108.921C120.641 107.866 120.229 107.029 119.945 106.045C120.006 105.795 120.069 105.546 120.132 105.299ZM57.5958 106.42C58.7612 106.205 60.0105 106.551 60.9239 107.299C62.4331 108.501 62.9423 110.732 62.1549 112.486C61.483 114.042 59.9922 115.168 58.2651 115.171C56.0473 115.32 54.0814 113.486 53.9502 111.289C53.6903 109 55.3307 106.816 57.5958 106.42Z" fill="black"/>
<path d="M57.3572 108.081C58.6905 107.58 60.2286 108.239 60.7482 109.57C61.491 111.27 60.3493 113.43 58.47 113.619C57.3546 113.743 56.4727 113.289 55.869 112.354C54.9661 110.808 55.6616 108.709 57.3572 108.081Z" fill="white"/>
<path d="M44.4727 110.394C44.5882 111.459 44.1026 112.344 44.0344 113.383C43.9714 114.979 44.6827 116.57 45.9478 117.554C46.5882 118.053 47.2916 118.294 47.9898 118.68C48.5016 118.903 48.4727 119.213 48.4045 119.709C48.0081 120.176 47.5357 120.092 47.0108 119.919C45.1 119.207 43.4543 117.661 42.8244 115.698C42.289 114.092 42.3599 112.129 43.1814 110.635C43.5121 110.144 43.9793 110.404 44.4727 110.394Z" fill="black"/>
<path d="M95.0761 79.0971C96.6955 78.9869 98.5118 78.937 99.9186 79.8714C100.884 80.5118 101.336 81.538 101.094 82.6903C100.688 84.3071 99.3569 85.5564 98.0472 86.496C95.6929 88.147 92.874 89.1837 90.0236 89.5223C88.5512 89.6614 86.7428 89.6352 85.4383 88.853C84.4855 88.2939 83.8897 87.2467 84.0735 86.1338C84.3412 84.6247 85.5144 83.3806 86.6824 82.4698C89.0945 80.6247 92.0761 79.4934 95.0761 79.0971ZM60.6876 83.5249C63.0787 83.4304 65.4934 83.6588 67.5932 84.9002C68.6037 85.4934 69.5197 86.4462 69.664 87.6535C69.7533 88.7585 69.1496 89.7008 68.3018 90.3491C67.1155 91.2808 65.7113 91.6614 64.252 91.9212C61.6404 92.189 58.8583 92.0052 56.5144 90.7192C55.4987 90.1181 54.4462 89.1837 54.2913 87.9449C54.0997 86.8241 54.8215 85.7218 55.706 85.0997C57.1233 84.084 58.9685 83.6063 60.6876 83.5249Z" fill="black"/>
<path d="M92.9082 128.294C95.5171 128.087 98.2468 128.118 100.654 129.265C101.9 129.864 102.953 130.864 103.207 132.27C103.436 133.646 102.903 134.877 102.134 135.982C100.795 137.845 98.714 139.223 96.7218 140.307C92.3911 142.606 87.7769 143.47 82.9423 143.919C77.6273 144.727 72.0132 143.493 67.4252 140.724C65.7953 139.701 64.0604 138.294 63.2179 136.525C62.546 135.144 62.6273 133.373 63.7244 132.228C64.9764 130.864 66.9869 130.352 68.7638 130.16C72.8583 129.827 76.7874 130.766 80.5197 132.391C84.2914 130.178 88.5538 128.743 92.9082 128.294Z" fill="black"/>
<path d="M99.5827 130.446C98.5958 131.289 97.5118 131.966 96.399 132.625C95.6982 133.026 95.4147 133.709 94.9711 134.357C94.5617 135.026 94.0446 135.596 93.4619 136.118C92.6693 135.829 91.8976 135.37 91.0709 135.199C90.2756 135.318 89.5223 135.69 88.7454 135.898C86.1155 136.648 83.3202 137.213 80.5774 137.189C79.8031 137.178 79.063 137.239 78.3045 137.402C78.3727 138.05 78.1732 138.627 79.0446 138.717C82.895 138.942 86.8504 138.189 90.4961 136.968C91.7402 136.425 92.5144 137.777 93.8661 137.42C95.0079 137.087 95.8005 135.688 96.4698 134.78C96.937 134.045 97.6325 133.698 98.3438 133.252C99.3045 132.664 100.173 131.979 101.06 131.291C101.438 131.963 101.892 132.52 101.696 133.344C101.328 135.021 99.9659 136.234 98.6824 137.26C95.3963 139.753 91.0814 141.134 87.0709 141.895C83.2677 142.415 79.7244 142.995 75.8871 142.281C72.5354 141.635 69.0184 140.31 66.4016 138.058C65.4121 137.163 64.2047 135.819 64.3517 134.381C64.4383 133.399 65.3806 132.724 66.2126 132.357C68.2992 131.478 70.6037 131.549 72.8137 131.774C75.0997 132.097 77.3779 132.698 79.4751 133.68C79.8819 133.845 80.3596 134.11 80.8084 134.079C81.622 133.751 82.3176 133.147 83.105 132.751C85.4252 131.535 87.9423 130.685 90.5144 130.197C93.5197 129.667 96.6483 129.423 99.5827 130.446Z" fill="white"/>
<path d="M73.2834 27.8819C73.7611 27.8425 74.2309 27.6063 74.5249 28.1155C74.9212 28.6562 74.811 29.021 74.3622 29.4724C72.1575 31.622 70.3097 34.1024 69.559 37.1417C77.4409 33.7008 86.1863 32.0079 94.7506 31.6483C97.2047 31.4541 99.6378 31.4488 102.094 31.6404C109.244 31.9396 116.465 33.147 123.234 35.5092C128.071 37.2126 132.932 39.6037 136.869 42.9291C140.113 45.6693 142.748 49.0367 143.845 53.2047C144.835 53.1391 145.759 53.0971 146.648 53.6142C148.546 54.622 149.905 56.7716 150.856 58.6378C152.753 62.4383 153.84 66.7191 154.646 70.8714C155.525 75.3806 155.911 79.9344 156.178 84.5144C156.197 87.916 156.315 91.3753 155.968 94.7585C155.856 95.8688 155.887 97.042 155.614 98.126C155.365 98.9081 154.467 98.8425 153.808 98.9212C151.638 98.9947 149.126 99.3806 147.255 100.549C146.908 101.213 146.863 102.031 146.538 102.711C146.01 103.312 145.27 103.745 144.633 104.223C142.989 105.367 141.428 106.625 139.787 107.772C139.318 108.071 138.701 108.475 138.236 107.934C137.871 107.612 137.871 107.281 137.945 106.827C138.79 101.693 138.701 96.2703 138.535 91.0787C138.559 89.0367 138.299 87.0262 138.178 84.9869C136.423 84.8556 134.711 84.4304 133.121 83.6693C129.325 81.874 126.163 78.727 124.15 75.063C122.551 72.1653 121.68 68.9186 121.989 65.5984C108.134 67.8451 94.0918 69.0761 80.0525 69.1076C77.2283 69.0236 74.4147 69.1102 71.5931 68.8661C67.8346 68.6955 64.0892 68.3674 60.3701 67.8084C57.4199 67.3412 54.4252 66.7533 51.6351 65.6824C50.3491 67.0026 49.5302 68.5118 48.5065 70.0341C47.9002 70.9422 47.475 71.9606 46.8425 72.8451C46.5695 73.2651 46.0183 73.3176 45.6981 72.9212C45.3832 72.2992 45.2782 71.5538 45.1391 70.874C44.5223 67.6115 44.8267 64.2047 46.2073 61.1706C45.5748 59.9816 44.9947 58.79 44.6798 57.4724C43.6666 53.5433 44.4908 49.3884 46.3727 45.853C48.8294 41.1785 52.9134 37.3228 57.3018 34.4646C62.1758 31.2808 67.6063 29.126 73.2834 27.8819Z" fill="black"/>
<path d="M72.1574 29.6929C70.3307 31.8058 68.7664 34.0236 68.1338 36.7927C68.0472 37.3176 67.7926 37.9974 68.0892 38.4777C68.4698 38.6746 68.895 38.7953 69.2992 38.9292C80.2651 33.9606 92.5275 32.4935 104.459 33.2756C112.079 33.8635 119.793 35.462 126.803 38.5617C130.793 40.3465 134.774 42.7454 137.827 45.9029C140.157 48.294 141.976 51.231 142.559 54.5564C142.714 54.6719 142.869 54.79 143.026 54.9055C144.097 54.7192 145.013 54.4462 146.029 55.0263C147.724 55.9843 148.879 58.0368 149.706 59.7402C151.633 63.8609 152.714 68.4935 153.478 72.9633C154.008 76.2651 154.399 79.6011 154.543 82.9396C154.57 85.0446 154.764 87.1339 154.693 89.2389C154.583 91.9921 154.543 94.7402 154.22 97.4803C152.184 97.5669 150.226 97.7349 148.294 98.441C147.556 98.7192 146.617 99.0263 146.094 99.6404C145.693 100.352 145.577 101.231 145.315 102.005C143.404 103.357 141.501 104.722 139.604 106.097C140.013 103.638 139.974 101.171 140.163 98.6929C140.294 96.2257 140.005 93.8005 139.979 91.3386C139.916 89.9239 139.921 88.5381 139.772 87.1365C139.635 85.9108 139.638 84.7769 139.241 83.5984C137.751 83.3937 136.304 83.3176 134.892 82.7428C130.698 81.2126 127.207 77.7139 125.192 73.7795C123.832 70.9921 122.974 67.7664 123.73 64.6824C123.052 63.7795 121.819 64.0866 120.866 64.2284C109.11 66.1129 97.2099 67.2756 85.3018 67.4856C81.8871 67.6404 78.4776 67.6273 75.0629 67.462C72.4357 67.42 69.8136 67.3202 67.1968 67.084C62.7217 66.6956 58.1128 66.1496 53.8057 64.8399C52.2598 64.3465 50.6456 63.7113 49.3412 62.727C46.4829 59.8373 45.1102 55.4252 46.0105 51.441C46.7742 47.2546 49.3149 43.4383 52.2808 40.4672C57.6194 35.1129 64.8819 31.5407 72.1574 29.6929ZM47.1023 62.5328C47.9265 63.6509 49 64.4042 50.2021 65.063C48.8923 66.7979 47.6955 68.6116 46.5249 70.441C46.2283 68.0814 46.1522 65.7743 46.8399 63.4698C46.9265 63.1575 47.0157 62.8452 47.1023 62.5328Z" fill="#0E0E0E"/>
<path d="M146.249 104.357C146.774 104.651 146.656 105.234 146.241 105.562C144.152 107.349 141.945 108.974 139.709 110.57C139.302 110.821 138.845 111.055 138.47 110.614C138 110.155 138.472 109.745 138.819 109.415C139.779 108.617 140.861 107.966 141.863 107.223C142.934 106.457 143.929 105.601 144.971 104.801C145.373 104.535 145.735 104.189 146.249 104.357Z" fill="black"/>
</g>
</g>
<defs>
<clipPath id="clip0_204_88">
<rect width="200" height="200" fill="white"/>
</clipPath>
</defs>
</svg>
