<svg width="33" height="33" viewBox="0 0 33 33" fill="none" xmlns="http://www.w3.org/2000/svg">
<path d="M17.9331 0.60388C17.5463 0.217216 17.0218 0 16.4749 0C15.928 0 15.4034 0.217216 15.0167 0.60388L0.578976 15.0416C0.20327 15.4306 -0.00462133 15.9516 7.7969e-05 16.4924C0.00477727 17.0331 0.221691 17.5505 0.6041 17.9329C0.98651 18.3153 1.50382 18.5322 2.04461 18.5369C2.58539 18.5416 3.10639 18.3337 3.49539 17.958L4.09971 17.3537V30.9375C4.09971 31.4845 4.31701 32.0091 4.70381 32.3959C5.09061 32.7827 5.61522 33 6.16224 33H10.2873C10.8343 33 11.3589 32.7827 11.7457 32.3959C12.1325 32.0091 12.3498 31.4845 12.3498 30.9375V26.8124C12.3498 26.2654 12.5671 25.7408 12.9539 25.354C13.3407 24.9672 13.8653 24.7499 14.4123 24.7499H18.5374C19.0844 24.7499 19.609 24.9672 19.9958 25.354C20.3826 25.7408 20.5999 26.2654 20.5999 26.8124V30.9375C20.5999 31.4845 20.8172 32.0091 21.204 32.3959C21.5908 32.7827 22.1154 33 22.6625 33H26.7875C27.3345 33 27.8591 32.7827 28.2459 32.3959C28.6327 32.0091 28.85 31.4845 28.85 30.9375V17.3537L29.4544 17.958C29.8434 18.3337 30.3644 18.5416 30.9051 18.5369C31.4459 18.5322 31.9632 18.3153 32.3456 17.9329C32.7281 17.5505 32.945 17.0331 32.9497 16.4924C32.9544 15.9516 32.7465 15.4306 32.3708 15.0416L17.9331 0.60388Z" fill="#505363"/>
</svg>
