<svg width="27" height="34" viewBox="0 0 27 34" fill="none" xmlns="http://www.w3.org/2000/svg">
<path d="M8.11111 4.55556H4.55556C3.61256 4.55556 2.70819 4.93016 2.0414 5.59695C1.3746 6.26375 1 7.16812 1 8.11111V29.4444C1 30.3874 1.3746 31.2918 2.0414 31.9586C2.70819 32.6254 3.61256 33 4.55556 33H22.3333C23.2763 33 24.1807 32.6254 24.8475 31.9586C25.5143 31.2918 25.8889 30.3874 25.8889 29.4444V8.11111C25.8889 7.16812 25.5143 6.26375 24.8475 5.59695C24.1807 4.93016 23.2763 4.55556 22.3333 4.55556H18.7778M8.11111 4.55556C8.11111 5.49855 8.48571 6.40292 9.15251 7.06971C9.81931 7.73651 10.7237 8.11111 11.6667 8.11111H15.2222C16.1652 8.11111 17.0696 7.73651 17.7364 7.06971C18.4032 6.40292 18.7778 5.49855 18.7778 4.55556M8.11111 4.55556C8.11111 3.61256 8.48571 2.70819 9.15251 2.0414C9.81931 1.3746 10.7237 1 11.6667 1H15.2222C16.1652 1 17.0696 1.3746 17.7364 2.0414C18.4032 2.70819 18.7778 3.61256 18.7778 4.55556M13.4444 17H18.7778M13.4444 24.1111H18.7778M8.11111 17H8.12889M8.11111 24.1111H8.12889" stroke="#505363" stroke-width="2" stroke-linecap="round" stroke-linejoin="round"/>
</svg>
