<svg width="129" height="25" viewBox="0 0 129 25" fill="none" xmlns="http://www.w3.org/2000/svg">
<g clip-path="url(#clip0_204_82)">
<path d="M3.78847 19.3182H0.411011V0.227295H3.78847V7.75457H4.27096C4.62836 7.00911 5.1466 6.43639 5.82566 6.03639C6.50472 5.61821 7.37143 5.40911 8.42576 5.40911C9.21205 5.40911 9.95366 5.56366 10.6506 5.87275C11.3654 6.18184 11.9819 6.63639 12.5002 7.23639C13.0363 7.81821 13.4562 8.53639 13.76 9.39093C14.0817 10.2455 14.2425 11.2182 14.2425 12.3091V12.8C14.2425 13.9091 14.0906 14.8909 13.7868 15.7455C13.483 16.6 13.072 17.3273 12.5538 17.9273C12.0355 18.5091 11.419 18.9546 10.7042 19.2637C10.0073 19.5546 9.24779 19.7 8.42576 19.7C7.81818 19.7 7.29101 19.6364 6.84426 19.5091C6.3975 19.3818 6.00436 19.2091 5.66483 18.9909C5.34317 18.7728 5.06618 18.5273 4.83387 18.2546C4.61943 17.9637 4.43179 17.6637 4.27096 17.3546H3.78847V19.3182ZM7.32675 16.4273C8.38109 16.4273 9.22992 16.1 9.87324 15.4455C10.5344 14.7728 10.865 13.8637 10.865 12.7182V12.3909C10.865 11.2455 10.5344 10.3455 9.87324 9.69093C9.22992 9.0182 8.38109 8.68184 7.32675 8.68184C6.27241 8.68184 5.41465 9.0273 4.75345 9.71821C4.11013 10.3909 3.78847 11.2818 3.78847 12.3909V12.7182C3.78847 13.8273 4.11013 14.7273 4.75345 15.4182C5.41465 16.0909 6.27241 16.4273 7.32675 16.4273ZM20.3622 13.6728C20.3801 14.0728 20.4694 14.4455 20.6303 14.7909C20.809 15.1182 21.0413 15.4091 21.3272 15.6637C21.631 15.9 21.9705 16.0909 22.3458 16.2364C22.739 16.3637 23.15 16.4273 23.5788 16.4273C24.4187 16.4273 25.0621 16.2818 25.5088 15.9909C25.9556 15.6818 26.2772 15.3182 26.4738 14.9L29.3688 16.5364C29.2079 16.8818 28.9846 17.2455 28.6986 17.6273C28.4127 17.9909 28.0374 18.3273 27.5728 18.6364C27.1261 18.9455 26.5721 19.2 25.9109 19.4C25.2676 19.6 24.5081 19.7 23.6325 19.7C22.6317 19.7 21.7204 19.5364 20.8983 19.2091C20.0763 18.8818 19.3615 18.4091 18.7539 17.7909C18.1642 17.1728 17.6996 16.4182 17.36 15.5273C17.0384 14.6364 16.8776 13.6273 16.8776 12.5V12.3364C16.8776 11.3 17.0473 10.3546 17.3869 9.50002C17.7443 8.64548 18.2267 7.91821 18.8343 7.31821C19.4419 6.71821 20.1478 6.25457 20.9519 5.9273C21.774 5.58184 22.6496 5.40911 23.5788 5.40911C24.7225 5.40911 25.7054 5.61821 26.5274 6.03639C27.3494 6.43639 28.0285 6.95457 28.5646 7.59093C29.1007 8.20911 29.4939 8.90002 29.744 9.66366C29.9942 10.4091 30.1193 11.1364 30.1193 11.8455V13.6728H20.3622ZM23.552 8.5182C22.6943 8.5182 21.9973 8.74548 21.4612 9.20002C20.9251 9.63639 20.5767 10.1455 20.4158 10.7273H26.6883C26.581 10.0909 26.2415 9.56366 25.6697 9.14548C25.1157 8.7273 24.4098 8.5182 23.552 8.5182ZM37.1773 19.3182H33.7998V5.79093H37.1773V7.80911H37.6598C37.9636 7.04548 38.455 6.45457 39.1341 6.03639C39.8131 5.61821 40.6084 5.40911 41.5197 5.40911C42.1631 5.40911 42.7617 5.51821 43.3157 5.73639C43.8875 5.93639 44.3879 6.25457 44.8168 6.69093C45.2457 7.1273 45.5763 7.68184 45.8086 8.35457C46.0587 9.0273 46.1838 9.8273 46.1838 10.7546V19.3182H42.8064V11.6273C42.8064 10.6637 42.5741 9.90911 42.1094 9.36366C41.6627 8.80002 41.0104 8.5182 40.1527 8.5182C39.1519 8.5182 38.4014 8.86366 37.901 9.55457C37.4185 10.2273 37.1773 11.1364 37.1773 12.2818V19.3182ZM53.1881 13.6728C53.206 14.0728 53.2954 14.4455 53.4562 14.7909C53.6349 15.1182 53.8672 15.4091 54.1531 15.6637C54.4569 15.9 54.7965 16.0909 55.1717 16.2364C55.5649 16.3637 55.9759 16.4273 56.4048 16.4273C57.2447 16.4273 57.888 16.2818 58.3348 15.9909C58.7816 15.6818 59.1032 15.3182 59.2998 14.9L62.1947 16.5364C62.0339 16.8818 61.8105 17.2455 61.5246 17.6273C61.2387 17.9909 60.8634 18.3273 60.3988 18.6364C59.952 18.9455 59.3981 19.2 58.7369 19.4C58.0936 19.6 57.3341 19.7 56.4584 19.7C55.4577 19.7 54.5463 19.5364 53.7243 19.2091C52.9022 18.8818 52.1874 18.4091 51.5798 17.7909C50.9901 17.1728 50.5255 16.4182 50.186 15.5273C49.8643 14.6364 49.7035 13.6273 49.7035 12.5V12.3364C49.7035 11.3 49.8732 10.3546 50.2128 9.50002C50.5702 8.64548 51.0527 7.91821 51.6602 7.31821C52.2678 6.71821 52.9737 6.25457 53.7779 5.9273C54.5999 5.58184 55.4755 5.40911 56.4048 5.40911C57.5485 5.40911 58.5314 5.61821 59.3534 6.03639C60.1754 6.43639 60.8545 6.95457 61.3906 7.59093C61.9267 8.20911 62.3198 8.90002 62.57 9.66366C62.8202 10.4091 62.9453 11.1364 62.9453 11.8455V13.6728H53.1881ZM56.378 8.5182C55.5202 8.5182 54.8233 8.74548 54.2872 9.20002C53.7511 9.63639 53.4026 10.1455 53.2418 10.7273H59.5142C59.407 10.0909 59.0675 9.56366 58.4956 9.14548C57.9417 8.7273 57.2358 8.5182 56.378 8.5182ZM65.9827 5.79093H71.6112V7.75457H72.0942C72.3444 7.00911 72.7644 6.43639 73.3541 6.03639C73.9617 5.61821 74.6854 5.40911 75.5253 5.40911C76.8477 5.40911 77.911 5.83639 78.7151 6.69093C79.5193 7.5273 79.9214 8.80911 79.9214 10.5364V11.1364L76.4367 11.4637V11.0818C76.4367 10.3364 76.2491 9.74548 75.8738 9.30911C75.4985 8.85457 74.9356 8.6273 74.1851 8.6273C73.4345 8.6273 72.8448 8.89093 72.4153 9.41821C71.987 9.94548 71.7726 10.7 71.7726 11.6818V16.0455H74.8284V19.3182H65.661V16.0455H68.3951V9.06366H65.9827V5.79093ZM92.5276 17.3546H92.0451C91.9022 17.6637 91.7235 17.9637 91.509 18.2546C91.3125 18.5273 91.0444 18.7728 90.7049 18.9909C90.3832 19.2091 89.9901 19.3818 89.5254 19.5091C89.0787 19.6364 88.5336 19.7 87.8903 19.7C87.0683 19.7 86.2999 19.5546 85.5851 19.2637C84.8881 18.9546 84.2716 18.5091 83.7355 17.9273C83.2173 17.3273 82.8063 16.6 82.5025 15.7455C82.2166 14.8909 82.0736 13.9091 82.0736 12.8V12.3091C82.0736 11.2182 82.2255 10.2455 82.5293 9.39093C82.8509 8.53639 83.2798 7.81821 83.8159 7.23639C84.3699 6.63639 85.0043 6.18184 85.7191 5.87275C86.4518 5.56366 87.2202 5.40911 88.0243 5.40911C89.0966 5.40911 89.9454 5.61821 90.5708 6.03639C91.1963 6.43639 91.6877 7.00911 92.0451 7.75457H92.5276V5.79093H95.9051V22.6455C95.9051 23.2637 95.7085 23.7727 95.3154 24.1728C94.9401 24.5728 94.4487 24.7727 93.8411 24.7727H84.8881V21.5H91.8039C92.2864 21.5 92.5276 21.2273 92.5276 20.6818V17.3546ZM88.9893 16.4273C90.0437 16.4273 90.8925 16.0909 91.5358 15.4182C92.197 14.7273 92.5276 13.8273 92.5276 12.7182V12.3909C92.5276 11.2818 92.197 10.3909 91.5358 9.71821C90.8925 9.0273 90.0437 8.68184 88.9893 8.68184C87.935 8.68184 87.0772 9.0182 86.416 9.69093C85.7727 10.3455 85.451 11.2455 85.451 12.3909V12.7182C85.451 13.8637 85.7727 14.7728 86.416 15.4455C87.0772 16.1 87.935 16.4273 88.9893 16.4273ZM108.056 17.3546C107.699 18.2091 107.198 18.8182 106.555 19.1818C105.912 19.5273 105.161 19.7 104.303 19.7C103.499 19.7 102.74 19.5455 102.025 19.2364C101.328 18.9273 100.712 18.4727 100.175 17.8727C99.6394 17.2728 99.2105 16.5455 98.8888 15.6909C98.585 14.8364 98.4331 13.8637 98.4331 12.7728V12.3364C98.4331 11.2637 98.585 10.3 98.8888 9.44548C99.1926 8.59093 99.6036 7.86366 100.122 7.26366C100.64 6.66366 101.239 6.20911 101.918 5.90002C102.615 5.57275 103.356 5.40911 104.143 5.40911C105.09 5.40911 105.849 5.57275 106.421 5.90002C107.011 6.2273 107.475 6.73639 107.815 7.4273H108.297V5.79093H111.675V15.2273C111.675 15.7727 111.916 16.0455 112.399 16.0455H112.908V19.3182H110.603C109.995 19.3182 109.495 19.1364 109.102 18.7728C108.726 18.4091 108.539 17.9364 108.539 17.3546H108.056ZM105.054 16.4273C106.037 16.4273 106.823 16.1 107.413 15.4455C108.003 14.7728 108.297 13.8637 108.297 12.7182V12.3909C108.297 11.2455 108.003 10.3455 107.413 9.69093C106.823 9.0182 106.037 8.68184 105.054 8.68184C104.071 8.68184 103.285 9.0182 102.695 9.69093C102.105 10.3455 101.811 11.2455 101.811 12.3909V12.7182C101.811 13.8637 102.105 14.7728 102.695 15.4455C103.285 16.1 104.071 16.4273 105.054 16.4273ZM120.314 10.7546H120.957L124.496 5.79093H128.195V5.95457L123.906 12.1455V12.6364L128.624 19.1546V19.3182H124.764L120.957 14.0273H120.314V19.3182H116.937V0.227295H120.314V10.7546Z" fill="#505363"/>
</g>
<defs>
<clipPath id="clip0_204_82">
<rect width="129" height="25" fill="white"/>
</clipPath>
</defs>
</svg>
