<svg width="27" height="34" viewBox="0 0 27 34" fill="none" xmlns="http://www.w3.org/2000/svg">
<path d="M20.5556 8.11111C20.5556 9.9971 19.8064 11.8058 18.4728 13.1394C17.1392 14.473 15.3304 15.2222 13.4444 15.2222C11.5585 15.2222 9.74972 14.473 8.41613 13.1394C7.08254 11.8058 6.33333 9.9971 6.33333 8.11111C6.33333 6.22513 7.08254 4.41639 8.41613 3.0828C9.74972 1.7492 11.5585 1 13.4444 1C15.3304 1 17.1392 1.7492 18.4728 3.0828C19.8064 4.41639 20.5556 6.22513 20.5556 8.11111ZM13.4444 20.5556C10.144 20.5556 6.97868 21.8667 4.64489 24.2004C2.31111 26.5342 1 29.6995 1 33H25.8889C25.8889 29.6995 24.5778 26.5342 22.244 24.2004C19.9102 21.8667 16.7449 20.5556 13.4444 20.5556Z" stroke="#505363" stroke-width="2" stroke-linecap="round" stroke-linejoin="round"/>
</svg>
